<?xml version="1.0" standalone="no"?>
<!DOCTYPE svg PUBLIC "-//W3C//DTD SVG 20010904//EN"
 "http://www.w3.org/TR/2001/REC-SVG-20010904/DTD/svg10.dtd">
<svg version="1.0" xmlns="http://www.w3.org/2000/svg"
 width="600.000000pt" height="600.000000pt" viewBox="0 0 600.000000 600.000000"
 preserveAspectRatio="xMidYMid meet">
<metadata>
Created by potrace 1.11, written by Peter Selinger 2001-2013
</metadata>
<g transform="translate(0.000000,600.000000) scale(0.100000,-0.100000)"
fill="#000000" stroke="none">
<path d="M2735 5729 c-904 -93 -1694 -613 -2134 -1404 -212 -381 -323 -786
-338 -1235 -26 -778 273 -1518 828 -2055 131 -126 258 -230 268 -219 4 5 151
574 326 1264 175 690 336 1307 357 1370 76 223 214 473 365 660 86 107 273
284 378 359 110 77 299 171 420 208 82 24 105 27 260 27 167 1 172 0 265 -32
134 -46 221 -101 321 -201 181 -181 272 -413 286 -731 23 -527 -208 -1090
-612 -1495 -222 -223 -449 -362 -704 -433 -83 -23 -115 -26 -241 -27 -132 0
-151 3 -216 27 -171 63 -293 176 -384 358 -18 36 -34 61 -36 55 -4 -11 -257
-990 -359 -1388 -36 -143 -65 -260 -63 -262 13 -12 163 -81 258 -118 206 -83
408 -137 650 -174 142 -22 566 -25 705 -5 651 92 1194 363 1630 813 410 423
658 931 752 1539 13 88 18 176 18 370 0 273 -10 369 -61 599 -178 799 -713
1484 -1446 1852 -263 132 -538 218 -853 265 -121 18 -514 26 -640 13z"/>
<path d="M3328 4565 c-199 -49 -422 -224 -576 -455 -121 -181 -249 -470 -321
-725 -79 -282 -213 -843 -213 -895 0 -34 10 -86 27 -135 78 -233 216 -382 400
-430 319 -83 700 187 940 667 129 257 298 900 324 1233 30 388 -96 672 -328
739 -66 19 -175 19 -253 1z"/>
</g>
</svg>
